<svg width="16" height="15" viewBox="0 0 16 15" fill="none" xmlns="http://www.w3.org/2000/svg">
<path fill-rule="evenodd" clip-rule="evenodd" d="M7.99974 13.0643C4.9337 11.221 3.22366 9.38891 2.39675 7.7993C1.55041 6.17234 1.62425 4.80204 2.09389 3.82948C3.05921 1.83045 5.80427 1.19122 7.47678 3.42406L7.9997 4.12217L8.52266 3.4241C10.1955 1.19117 12.9407 1.8305 13.906 3.82948C14.3756 4.80202 14.4494 6.17232 13.603 7.79928C12.776 9.38889 11.0659 11.221 7.99974 13.0643ZM7.99977 1.94482C5.64696 -0.415132 2.17604 0.56023 0.905976 3.19034C0.208948 4.63379 0.199427 6.49939 1.22802 8.4767C2.24749 10.4365 4.28009 12.5051 7.67724 14.487L7.99973 14.6752L8.32222 14.487C11.7195 12.5051 13.7522 10.4365 14.7717 8.47672C15.8004 6.49941 15.7909 4.6338 15.0939 3.19034C13.8238 0.56018 10.3528 -0.415096 7.99977 1.94482Z" fill="#5061A4"/>
</svg>
