<svg width="40" height="40" viewBox="0 0 40 40" fill="none" xmlns="http://www.w3.org/2000/svg">
<path fill-rule="evenodd" clip-rule="evenodd" d="M36.5392 17.6116C36.3018 19.2561 35.7392 20.8192 34.9055 22.2565C34.968 22.6124 35 22.9721 35 23.3334C35 24.5881 34.6365 25.7889 33.9631 26.8799C33.6269 27.4245 33.5404 28.0626 33.5072 28.4842C33.469 28.9673 33.4819 29.496 33.5163 30.0039C33.555 30.5737 33.6251 31.1719 33.7053 31.7362C33.0548 31.5465 32.3497 31.356 31.6768 31.2042C31.1171 31.078 30.5444 30.9703 30.0257 30.9168C29.5732 30.87 28.9193 30.8338 28.3346 31.0229C27.0561 31.4361 25.6493 31.6667 24.1667 31.6667C22.4035 31.6667 20.7842 31.3537 19.3648 30.81C19.0234 30.8255 18.6795 30.8334 18.3333 30.8334C16.3256 30.8334 14.3933 30.5693 12.5854 30.0814C15.2137 33.1211 19.5465 35 24.1667 35C25.9716 35 27.7039 34.7229 29.3004 34.2137C29.3031 34.2138 29.3082 34.2137 29.3158 34.2136C29.3568 34.2127 29.4706 34.2105 29.6832 34.2325C30.0175 34.267 30.4474 34.344 30.9433 34.4559C31.9306 34.6786 33.04 35.0072 33.9046 35.2817C35.7382 35.8637 37.5148 34.2636 37.1871 32.403C37.0461 31.6021 36.8995 30.6247 36.842 29.7781C36.8131 29.3523 36.8099 29.0029 36.8302 28.7464C36.8385 28.6402 36.8493 28.5735 36.8561 28.5381C37.7938 26.9848 38.3334 25.2162 38.3334 23.3334C38.3334 21.2108 37.6741 19.2725 36.5392 17.6116Z" fill="#5061A4"/>
<path fill-rule="evenodd" clip-rule="evenodd" d="M9.32846 9.49686C7.08187 11.2148 5.83339 13.4701 5.83339 15.8333C5.83339 17.0117 6.14016 18.1466 6.7157 19.202C6.93491 19.6039 6.99709 20.0186 7.01933 20.2993C7.04358 20.6054 7.03149 20.92 7.00487 21.2141C6.95158 21.8031 6.82445 22.4704 6.67197 23.1276C6.4936 23.8965 6.26504 24.7164 6.03312 25.4862C6.91354 25.1663 7.87581 24.8383 8.78807 24.5722C9.52535 24.3571 10.2699 24.1704 10.9326 24.0657C11.5034 23.9754 12.3318 23.8867 13.045 24.1334C14.6455 24.6872 16.436 24.9999 18.3334 24.9999C21.912 24.9999 25.0902 23.8888 27.3383 22.1696C29.5849 20.4517 30.8334 18.1964 30.8334 15.8333C30.8334 13.4701 29.5849 11.2148 27.3383 9.49686C25.0902 7.7777 21.912 6.66659 18.3334 6.66659C14.7548 6.66659 11.5766 7.7777 9.32846 9.49686ZM7.30363 6.849C10.1828 4.64726 14.088 3.33325 18.3334 3.33325C22.5788 3.33325 26.484 4.64726 29.3632 6.849C32.2439 9.05191 34.1667 12.2134 34.1667 15.8333C34.1667 19.4532 32.2439 22.6146 29.3632 24.8175C26.484 27.0192 22.5788 28.3333 18.3334 28.3333C16.095 28.3333 13.9568 27.9683 12.0155 27.3043C12.0136 27.3098 11.8561 27.2944 11.4532 27.3581C10.9888 27.4315 10.396 27.5754 9.72162 27.7721C8.37918 28.1638 6.8716 28.7178 5.72329 29.1647C3.7339 29.939 1.70731 28.0284 2.37758 25.9932C2.73283 24.9145 3.15181 23.5513 3.42488 22.3743C3.56243 21.7814 3.6517 21.2829 3.6851 20.9137C3.6967 20.7856 3.69969 20.6922 3.69902 20.629C2.93189 19.1631 2.50006 17.542 2.50006 15.8333C2.50006 12.2134 4.4229 9.05191 7.30363 6.849ZM3.69353 20.5381C3.6937 20.5379 3.69451 20.5424 3.69548 20.5521C3.69386 20.5432 3.69337 20.5383 3.69353 20.5381Z" fill="#5061A4"/>
</svg>
