<svg width="24" height="38" viewBox="0 0 24 38" fill="none" xmlns="http://www.w3.org/2000/svg">
<path fill-rule="evenodd" clip-rule="evenodd" d="M6.16658 3.86971C4.78587 3.86971 3.66659 4.989 3.66659 6.36971V31.6301C3.66659 33.0108 4.78587 34.1301 6.16658 34.1301H17.8333C19.214 34.1301 20.3333 33.0108 20.3333 31.6301V6.36971C20.3333 4.989 19.214 3.86971 17.8333 3.86971H17.6943L17.2883 4.8438C17.0295 5.46482 16.4227 5.86934 15.7499 5.86934H8.24992C7.57712 5.86934 6.97031 5.46482 6.7115 4.8438L6.30555 3.86971H6.16658ZM0.333252 6.36971C0.333252 3.14805 2.94492 0.536377 6.16658 0.536377H17.8333C21.0549 0.536377 23.6666 3.14805 23.6666 6.36971V31.6301C23.6666 34.8518 21.0549 37.4635 17.8333 37.4635H6.16658C2.94492 37.4635 0.333252 34.8518 0.333252 31.6301V6.36971Z" fill="#5061A4"/>
</svg>
