<svg width="144" height="35" viewBox="0 0 144 35" fill="none" xmlns="http://www.w3.org/2000/svg">
<rect x="125.639" y="7.83813" width="4" height="21" rx="2" fill="#5061A4"/>
<rect x="138.809" y="7.83813" width="4" height="21" rx="2" fill="#5061A4"/>
<rect x="125" y="9.4248" width="4" height="24.8224" rx="2" transform="rotate(-37.316 125 9.4248)" fill="#5061A4"/>
<path d="M7.641 9.073C10.449 9.073 12.6 9.577 14.094 10.585C15.588 11.575 16.335 13.123 16.335 15.229C16.335 16.543 16.029 17.614 15.417 18.442C14.823 19.252 13.959 19.891 12.825 20.359C13.203 20.827 13.599 21.367 14.013 21.979C14.427 22.573 14.832 23.203 15.228 23.869C15.642 24.517 16.038 25.201 16.416 25.921C16.794 26.623 17.145 27.316 17.469 28H12.744C12.402 27.388 12.051 26.767 11.691 26.137C11.349 25.507 10.989 24.895 10.611 24.301C10.251 23.707 9.891 23.149 9.531 22.627C9.171 22.087 8.811 21.601 8.451 21.169H6.372V28H2.16V9.559C3.078 9.379 4.023 9.253 4.995 9.181C5.985 9.109 6.867 9.073 7.641 9.073ZM7.884 12.664C7.578 12.664 7.299 12.673 7.047 12.691C6.813 12.709 6.588 12.727 6.372 12.745V17.821H7.56C9.144 17.821 10.278 17.623 10.962 17.227C11.646 16.831 11.988 16.156 11.988 15.202C11.988 14.284 11.637 13.636 10.935 13.258C10.251 12.862 9.234 12.664 7.884 12.664ZM34.5405 28C34.3425 27.352 34.1175 26.686 33.8655 26.002C33.6315 25.318 33.3975 24.634 33.1635 23.95H25.8735C25.6395 24.634 25.3965 25.318 25.1445 26.002C24.9105 26.686 24.6945 27.352 24.4965 28H20.1225C20.8245 25.984 21.4905 24.121 22.1205 22.411C22.7505 20.701 23.3625 19.09 23.9565 17.578C24.5685 16.066 25.1625 14.635 25.7385 13.285C26.3325 11.917 26.9445 10.585 27.5745 9.289H31.5975C32.2095 10.585 32.8125 11.917 33.4065 13.285C34.0005 14.635 34.5945 16.066 35.1885 17.578C35.8005 19.09 36.4215 20.701 37.0515 22.411C37.6815 24.121 38.3475 25.984 39.0495 28H34.5405ZM29.4915 13.528C29.4015 13.798 29.2665 14.167 29.0865 14.635C28.9065 15.103 28.6995 15.643 28.4655 16.255C28.2315 16.867 27.9705 17.542 27.6825 18.28C27.4125 19.018 27.1335 19.792 26.8455 20.602H32.1645C31.8765 19.792 31.5975 19.018 31.3275 18.28C31.0575 17.542 30.7965 16.867 30.5445 16.255C30.3105 15.643 30.1035 15.103 29.9235 14.635C29.7435 14.167 29.5995 13.798 29.4915 13.528ZM53.9455 11.287C54.1615 12.025 54.3955 12.862 54.6475 13.798C54.9175 14.716 55.1965 15.67 55.4845 16.66C55.7905 17.65 56.0965 18.64 56.4025 19.63C56.7085 20.62 57.0055 21.538 57.2935 22.384C57.5275 21.466 57.7615 20.467 57.9955 19.387C58.2475 18.307 58.4815 17.191 58.6975 16.039C58.9135 14.887 59.1205 13.744 59.3185 12.61C59.5345 11.458 59.7325 10.351 59.9125 9.289H64.2865C63.6565 12.421 62.9275 15.598 62.0995 18.82C61.2895 22.042 60.4075 25.102 59.4535 28H55.5925C54.9625 26.272 54.3505 24.463 53.7565 22.573C53.1625 20.665 52.5775 18.757 52.0015 16.849C51.4255 18.757 50.8495 20.665 50.2735 22.573C49.6975 24.463 49.0945 26.272 48.4645 28H44.6035C43.6495 25.102 42.7585 22.042 41.9305 18.82C41.1205 15.598 40.4005 12.421 39.7705 9.289H44.3335C44.5135 10.351 44.7115 11.458 44.9275 12.61C45.1435 13.744 45.3685 14.887 45.6025 16.039C45.8365 17.191 46.0705 18.307 46.3045 19.387C46.5565 20.467 46.8085 21.466 47.0605 22.384C47.3845 21.502 47.6995 20.566 48.0055 19.576C48.3115 18.586 48.6085 17.596 48.8965 16.606C49.1845 15.616 49.4455 14.662 49.6795 13.744C49.9315 12.826 50.1565 12.007 50.3545 11.287H53.9455ZM73.096 24.787C73.69 24.787 74.176 24.742 74.554 24.652C74.95 24.544 75.265 24.409 75.499 24.247C75.733 24.067 75.895 23.86 75.985 23.626C76.075 23.392 76.12 23.131 76.12 22.843C76.12 22.231 75.832 21.727 75.256 21.331C74.68 20.917 73.69 20.476 72.286 20.008C71.674 19.792 71.062 19.549 70.45 19.279C69.838 18.991 69.289 18.64 68.803 18.226C68.317 17.794 67.921 17.281 67.615 16.687C67.309 16.075 67.156 15.337 67.156 14.473C67.156 13.609 67.318 12.835 67.642 12.151C67.966 11.449 68.425 10.855 69.019 10.369C69.613 9.883 70.333 9.514 71.179 9.262C72.025 8.992 72.979 8.857 74.041 8.857C75.301 8.857 76.39 8.992 77.308 9.262C78.226 9.532 78.982 9.829 79.576 10.153L78.361 13.474C77.839 13.204 77.254 12.97 76.606 12.772C75.976 12.556 75.211 12.448 74.311 12.448C73.303 12.448 72.574 12.592 72.124 12.88C71.692 13.15 71.476 13.573 71.476 14.149C71.476 14.491 71.557 14.779 71.719 15.013C71.881 15.247 72.106 15.463 72.394 15.661C72.7 15.841 73.042 16.012 73.42 16.174C73.816 16.318 74.248 16.471 74.716 16.633C75.688 16.993 76.534 17.353 77.254 17.713C77.974 18.055 78.568 18.46 79.036 18.928C79.522 19.396 79.882 19.945 80.116 20.575C80.35 21.205 80.467 21.97 80.467 22.87C80.467 24.616 79.855 25.975 78.631 26.947C77.407 27.901 75.562 28.378 73.096 28.378C72.268 28.378 71.521 28.324 70.855 28.216C70.189 28.126 69.595 28.009 69.073 27.865C68.569 27.721 68.128 27.568 67.75 27.406C67.39 27.244 67.084 27.091 66.832 26.947L68.02 23.599C68.578 23.905 69.262 24.184 70.072 24.436C70.9 24.67 71.908 24.787 73.096 24.787ZM95.9939 9.289H100.206V28H95.9939V20.062H88.9199V28H84.7079V9.289H88.9199V16.444H95.9939V9.289ZM118.064 28C117.866 27.352 117.641 26.686 117.389 26.002C117.155 25.318 116.921 24.634 116.687 23.95H109.397C109.163 24.634 108.92 25.318 108.668 26.002C108.434 26.686 108.218 27.352 108.02 28H103.646C104.348 25.984 105.014 24.121 105.644 22.411C106.274 20.701 106.886 19.09 107.48 17.578C108.092 16.066 108.686 14.635 109.262 13.285C109.856 11.917 110.468 10.585 111.098 9.289H115.121C115.733 10.585 116.336 11.917 116.93 13.285C117.524 14.635 118.118 16.066 118.712 17.578C119.324 19.09 119.945 20.701 120.575 22.411C121.205 24.121 121.871 25.984 122.573 28H118.064ZM113.015 13.528C112.925 13.798 112.79 14.167 112.61 14.635C112.43 15.103 112.223 15.643 111.989 16.255C111.755 16.867 111.494 17.542 111.206 18.28C110.936 19.018 110.657 19.792 110.369 20.602H115.688C115.4 19.792 115.121 19.018 114.851 18.28C114.581 17.542 114.32 16.867 114.068 16.255C113.834 15.643 113.627 15.103 113.447 14.635C113.267 14.167 113.123 13.798 113.015 13.528Z" fill="black"/>
</svg>
